<?xml version="1.0" encoding="UTF-8"?>
<svg id="Ebene_1" xmlns="http://www.w3.org/2000/svg" version="1.1" viewBox="0 0 1626.69104 226.77165">
  <!-- Generator: Adobe Illustrator 29.5.0, SVG Export Plug-In . SVG Version: 2.1.0 Build 137)  -->
  <g style="isolation: isolate;">
    <g id="a">
      <path d="M230.09679,60.56139c-5.13043-1.31573-10.46797-1.62104-15.74565-1.17538l-47.46259,4.00777c-7.13068.61932-11.06848-4.41293-8.75383-11.18589,0,0,8.88463-26.68329,8.88463-29.7507,0-12.4032-10.05125-22.45719-22.45447-22.45719-7.61932,0-14.32544,3.79894-18.3834,9.58939l-18.04688,23.80808c-4.33023,5.68901-13.27091,8.07039-19.86221,5.28852l-43.77979-18.57009c-4.20407-1.76463-8.39079-3.15281-13.12944-3.15281-15.67099,0-28.38121,12.71815-28.38121,28.38638,0,14.40284,9.60142,24.8759,24.59827,28.13028l39.07858,7.85416c5.26722,1.06246,5.5421,3.66006.61659,5.80386,0,0-19.1838,8.3021-26.89201,11.6284-3.61474,1.55985-7.12527,3.35513-10.40859,5.52754C8.90547,118.23418-3.80471,143.80238,1.02146,171.85909c4.73037,27.49973,26.51939,49.24005,54.02865,53.91469,42.0533,7.1461,78.48102-25.05212,78.48102-65.76767l.02132-42.65048c.03471-10.72404,6.75424-13.81287,14.92072-6.85566,0,0,38.60332,32.85824,38.61139,32.85824,12.22026,10.44946,29.75212,14.87506,48.00723,8.57291,13.23662-4.56964,23.69795-15.11926,28.17906-28.38611,9.83173-29.10791-7.52434-56.40557-33.17407-62.98361l.00002.00002v-.00002Z" style="fill: #000050;"/>
      <path d="M357.25894,86.76801v53.11913h29.05664v30.19141h-24.9707c-23.1543,0-38.59082-15.4375-38.59082-38.5918V28.34648h34.50488v28.22818h31.32666v30.19336s-31.32666,0-31.32666,0Z" style="fill: #000050;"/>
      <path d="M511.95801,124.22279h-77.18164c2.04297,15.43555,9.30713,21.79297,23.83545,21.79297,10.896,0,16.1167-3.40625,21.56494-14.30273l29.51074,10.44336c-7.71777,19.52148-24.74316,30.19141-51.9834,30.19141-35.18604,0-58.79443-23.1543-58.79443-58.11328,0-35.86719,23.1543-59.92969,57.65918-59.92969,33.36963,0,55.61572,23.1543,55.61572,58.11329,0,3.85938,0,6.81055-.22656,11.80469ZM434.77637,101.75014h43.35742c-.22656-16.57227-7.03711-22.24805-20.88379-22.24805s-20.65771,6.35742-22.47363,22.24805Z" style="fill: #000050;"/>
      <path d="M649.97186,56.69292v113.38563h-34.50488v-25.42578c-6.35645,17.93359-19.2959,27.69531-37.45605,27.69531-32.46191,0-50.39551-23.60938-50.39551-58.79492,0-35.63867,17.02539-59.24805,48.12598-59.24805,19.29492,0,33.14258,9.98828,39.72559,28.60352v-26.21571h34.50488ZM616.60175,113.55317c0-19.06836-8.85352-27.92188-27.69434-27.92188-18.16016,0-26.78711,8.85352-26.78711,27.92188,0,18.61523,8.62695,27.46874,26.78711,27.46874,18.84082,0,27.69434-8.85352,27.69434-27.46874Z" style="fill: #000050;"/>
      <path d="M861.33673,95.24458v74.83418h-34.46869v-82.09029h-41.27112v82.09029h-34.46869v-82.09029h-41.27209v82.09029h-34.46869V56.69292h145.35815c23.13,0,40.59119,15.42144,40.59119,38.55165h-.00006v.00002Z" style="fill: #000050;"/>
      <g>
        <path d="M1028.24011,95.24458v74.83418h-34.46899v-82.09029h-41.27246v82.09029h-34.46899V56.69292h69.6189c23.13019,0,40.59155,15.42144,40.59155,38.55165v.00002Z" style="fill: #000050;"/>
        <path d="M1158.901,124.22279h-77.18164c2.04297,15.43555,9.30762,21.79297,23.83594,21.79297,10.89551,0,16.11719-3.40625,21.56543-14.30273l29.51074,10.44336c-7.71875,19.52148-24.74414,30.19141-51.98438,30.19141-35.18555,0-58.79395-23.1543-58.79395-58.11328,0-35.86719,23.1543-59.92969,57.65918-59.92969,33.36914,0,55.61621,23.1543,55.61621,58.11329,0,3.85938,0,6.81055-.22754,11.80469ZM1081.71936,101.75014h43.3584c-.22754-16.57227-7.03711-22.24805-20.88477-22.24805s-20.65723,6.35742-22.47363,22.24805Z" style="fill: #000050;"/>
        <path d="M1287.53918,56.57466v65.83204c0,29.96484-22.24609,49.94141-55.38867,49.94141s-55.38965-19.97656-55.38965-49.94141V56.57466h34.50488v66.28711c0,15.43555,6.58301,19.29492,20.88477,19.29492,14.30078,0,20.88379-3.85938,20.88379-19.29492V56.57466h34.50488Z" style="fill: #000050;"/>
        <path d="M1302.6084,139.43208l32.00781-8.39844c1.36133,13.16602,8.39844,16.11719,20.88379,16.11719,8.62695,0,15.20996-3.63281,15.20996-9.76172,0-5.90234-3.17871-9.30664-16.34473-11.12305l-17.47949-2.49609c-21.79199-3.17969-32.46191-15.89062-32.46191-34.73242,0-22.24609,17.02539-34.73242,46.99023-34.73242,34.95898,0,46.53613,14.5293,49.71387,31.32617l-29.51074,6.81055c-1.13477-10.89648-4.99414-14.52734-19.06836-14.52734-8.85254,0-13.62012,3.63086-13.62012,9.76172,0,4.99219,2.95117,8.625,14.52832,9.98633l20.43066,2.49805c19.74902,2.49609,31.32715,15.20898,31.32715,33.82422,0,24.51562-18.61523,38.36328-51.98438,38.36328-31.32715,0-48.5791-16.79883-50.62207-32.91602Z" style="fill: #000050;"/>
        <path d="M1456.3645,86.76801v53.11913h29.05664v30.19141h-24.9707c-23.1543,0-38.59082-15.4375-38.59082-38.5918V28.34648h34.50488v28.22818h31.32715v30.19336s-31.32715,0-31.32715,0Z" style="fill: #000050;"/>
        <path d="M1626.69104,56.69292v113.38563h-34.50488v-25.42578c-6.35645,17.93359-19.2959,27.69531-37.45605,27.69531-32.46191,0-50.39551-23.60938-50.39551-58.79492,0-35.63867,17.02539-59.24805,48.12598-59.24805,19.29492,0,33.14258,9.98828,39.72559,28.60352v-26.21571h34.50488ZM1593.32092,113.55317c0-19.06836-8.85352-27.92188-27.69434-27.92188-18.16016,0-26.78711,8.85352-26.78711,27.92188,0,18.61523,8.62695,27.46874,26.78711,27.46874,18.84082,0,27.69434-8.85352,27.69434-27.46874Z" style="fill: #000050;"/>
      </g>
    </g>
  </g>
</svg>